<svg width="30" height="30" viewBox="0 0 30 30" fill="none" xmlns="http://www.w3.org/2000/svg">
<g clip-path="url(#clip0_202_247)">
<path d="M30 15.0919C30 6.75567 23.2838 -0.00183105 15 -0.00183105C6.71253 4.39455e-05 -0.00372314 6.75567 -0.00372314 15.0938C-0.00372314 22.6257 5.48253 28.8694 12.6525 30.0019V19.455H8.84628V15.0938H12.6563V11.7657C12.6563 7.98379 14.8969 5.89504 18.3225 5.89504C19.965 5.89504 21.6807 6.18942 21.6807 6.18942V9.90192H19.7888C17.9269 9.90192 17.3457 11.0663 17.3457 12.2607V15.0919H21.5044L20.8407 19.4532H17.3438V30C24.5138 28.8675 30 22.6238 30 15.0919Z" fill="#023E8A"/>
</g>
<defs>
<clipPath id="clip0_202_247">
<rect width="30" height="30" fill="white"/>
</clipPath>
</defs>
</svg>
