<svg width="24" height="24" viewBox="0 0 24 24" fill="none" xmlns="http://www.w3.org/2000/svg">
<path d="M3.99997 8L3.64597 8.354L3.29297 8L3.64597 7.646L3.99997 8ZM8.99997 19.5C8.86736 19.5 8.74018 19.4473 8.64641 19.3535C8.55265 19.2598 8.49997 19.1326 8.49997 19C8.49997 18.8674 8.55265 18.7402 8.64641 18.6464C8.74018 18.5527 8.86736 18.5 8.99997 18.5V19.5ZM8.64597 13.354L3.64597 8.354L4.35397 7.646L9.35397 12.646L8.64597 13.354ZM3.64597 7.646L8.64597 2.646L9.35397 3.354L4.35397 8.354L3.64597 7.646ZM3.99997 7.5H14.5V8.5H3.99997V7.5ZM14.5 19.5H8.99997V18.5H14.5V19.5ZM20.5 13.5C20.5 15.0913 19.8678 16.6174 18.7426 17.7426C17.6174 18.8679 16.0913 19.5 14.5 19.5V18.5C15.8261 18.5 17.0978 17.9732 18.0355 17.0355C18.9732 16.0978 19.5 14.8261 19.5 13.5H20.5ZM14.5 7.5C16.0913 7.5 17.6174 8.13214 18.7426 9.25736C19.8678 10.3826 20.5 11.9087 20.5 13.5H19.5C19.5 12.1739 18.9732 10.9021 18.0355 9.96446C17.0978 9.02678 15.8261 8.5 14.5 8.5V7.5Z" fill="black"/>
</svg>
