<svg width="24" height="18" viewBox="0 0 24 18" fill="none" xmlns="http://www.w3.org/2000/svg">
<path d="M3.99997 5.99988L3.64597 6.26538L3.29297 5.99988L3.64597 5.73438L3.99997 5.99988ZM8.99997 14.6249C8.86736 14.6249 8.74018 14.5854 8.64641 14.515C8.55265 14.4447 8.49997 14.3493 8.49997 14.2499C8.49997 14.1504 8.55265 14.055 8.64641 13.9847C8.74018 13.9144 8.86736 13.8749 8.99997 13.8749V14.6249ZM8.64597 10.0154L3.64597 6.26538L4.35397 5.73438L9.35397 9.48438L8.64597 10.0154ZM3.64597 5.73438L8.64597 1.98438L9.35397 2.51538L4.35397 6.26538L3.64597 5.73438ZM3.99997 5.62488H14.5V6.37488H3.99997V5.62488ZM14.5 14.6249H8.99997V13.8749H14.5V14.6249ZM20.5 10.1249C20.5 11.3183 19.8678 12.4629 18.7426 13.3069C17.6174 14.1508 16.0913 14.6249 14.5 14.6249V13.8749C15.8261 13.8749 17.0978 13.4798 18.0355 12.7765C18.9732 12.0733 19.5 11.1194 19.5 10.1249H20.5ZM14.5 5.62488C16.0913 5.62488 17.6174 6.09898 18.7426 6.94289C19.8678 7.78681 20.5 8.9314 20.5 10.1249H19.5C19.5 9.13031 18.9732 8.17649 18.0355 7.47322C17.0978 6.76996 15.8261 6.37488 14.5 6.37488V5.62488Z" fill="black"/>
</svg>
