<svg width="16" height="17" viewBox="0 0 16 17" fill="none" xmlns="http://www.w3.org/2000/svg">
<path d="M13.601 2.82602C12.8676 2.08552 11.9941 1.49847 11.0314 1.09912C10.0688 0.699767 9.03621 0.496109 7.994 0.500025C3.627 0.500025 0.068 4.05802 0.064 8.42602C0.064 9.82502 0.43 11.186 1.121 12.391L0 16.5L4.204 15.398C5.36649 16.0323 6.66975 16.3641 7.994 16.363H7.998C12.366 16.363 15.924 12.805 15.928 8.43302C15.9289 7.39108 15.7237 6.35926 15.3241 5.39697C14.9246 4.43467 14.3396 3.56092 13.601 2.82602ZM7.994 15.021C6.81318 15.0201 5.65422 14.7024 4.638 14.101L4.398 13.957L1.904 14.611L2.57 12.178L2.414 11.927C1.75381 10.8773 1.40465 9.66205 1.407 8.42202C1.407 4.79602 4.364 1.83802 7.998 1.83802C8.86374 1.83647 9.72123 2.0063 10.521 2.33772C11.3208 2.66913 12.0471 3.15558 12.658 3.76902C13.2709 4.38017 13.7568 5.10657 14.0877 5.90635C14.4186 6.70613 14.5879 7.56349 14.586 8.42902C14.582 12.068 11.625 15.021 7.994 15.021ZM11.609 10.087C11.412 9.98802 10.439 9.50902 10.256 9.44102C10.074 9.37603 9.941 9.34202 9.811 9.54002C9.678 9.73702 9.298 10.186 9.184 10.315C9.07 10.448 8.952 10.463 8.754 10.365C8.557 10.265 7.918 10.057 7.162 9.38002C6.572 8.85503 6.177 8.20502 6.059 8.00802C5.945 7.81002 6.048 7.70402 6.147 7.60502C6.234 7.51702 6.344 7.37302 6.443 7.25902C6.543 7.14502 6.576 7.06102 6.641 6.92902C6.706 6.79502 6.675 6.68102 6.626 6.58202C6.576 6.48302 6.181 5.50602 6.014 5.11202C5.854 4.72302 5.691 4.77702 5.569 4.77202C5.455 4.76502 5.322 4.76502 5.189 4.76502C5.08857 4.76758 4.98976 4.79084 4.89873 4.83334C4.80771 4.87584 4.72643 4.93667 4.66 5.01202C4.478 5.21002 3.969 5.68902 3.969 6.66602C3.969 7.64302 4.679 8.58202 4.779 8.71502C4.877 8.84803 6.173 10.847 8.162 11.707C8.632 11.912 9.002 12.033 9.291 12.125C9.766 12.277 10.195 12.254 10.537 12.205C10.917 12.147 11.708 11.725 11.875 11.262C12.039 10.798 12.039 10.402 11.989 10.319C11.94 10.235 11.807 10.186 11.609 10.087Z" fill="#262626"/>
</svg>
