<svg width="50" height="54" viewBox="0 0 50 54" fill="none" xmlns="http://www.w3.org/2000/svg">
<path d="M25 0.91864C18.3696 0.91864 12.0107 3.70845 7.32233 8.67435C2.63392 13.6403 0 20.3755 0 27.3983C0 34.4211 2.63392 41.1563 7.32233 46.1222C12.0107 51.0881 18.3696 53.8779 25 53.8779C31.6304 53.8779 37.9893 51.0881 42.6777 46.1222C47.3661 41.1563 50 34.4211 50 27.3983C50 20.3755 47.3661 13.6403 42.6777 8.67435C37.9893 3.70845 31.6304 0.91864 25 0.91864ZM35.9375 25.7433C36.3519 25.7433 36.7493 25.9177 37.0424 26.228C37.3354 26.5384 37.5 26.9594 37.5 27.3983C37.5 27.8372 37.3354 28.2582 37.0424 28.5685C36.7493 28.8789 36.3519 29.0533 35.9375 29.0533H17.8344L24.5438 36.1564C24.689 36.3103 24.8043 36.493 24.8829 36.694C24.9615 36.8951 25.002 37.1106 25.002 37.3282C25.002 37.5458 24.9615 37.7613 24.8829 37.9623C24.8043 38.1633 24.689 38.346 24.5438 38.4999C24.3985 38.6538 24.226 38.7758 24.0362 38.8591C23.8464 38.9424 23.643 38.9852 23.4375 38.9852C23.232 38.9852 23.0286 38.9424 22.8388 38.8591C22.649 38.7758 22.4765 38.6538 22.3312 38.4999L12.9562 28.57C12.8107 28.4163 12.6953 28.2337 12.6165 28.0326C12.5378 27.8315 12.4972 27.616 12.4972 27.3983C12.4972 27.1806 12.5378 26.9651 12.6165 26.764C12.6953 26.5629 12.8107 26.3803 12.9562 26.2266L22.3312 16.2967C22.6246 15.9859 23.0226 15.8114 23.4375 15.8114C23.8524 15.8114 24.2504 15.9859 24.5438 16.2967C24.8371 16.6075 25.002 17.0289 25.002 17.4684C25.002 17.9079 24.8371 18.3294 24.5438 18.6401L17.8344 25.7433H35.9375Z" fill="#0096C7"/>
</svg>
