<svg width="16" height="16" viewBox="0 0 16 16" fill="none" xmlns="http://www.w3.org/2000/svg">
<path d="M13.601 2.32602C12.8676 1.58552 11.9941 0.99847 11.0314 0.599119C10.0688 0.199767 9.03621 -0.00389134 7.994 2.49075e-05C3.627 2.49075e-05 0.068 3.55802 0.064 7.92602C0.064 9.32502 0.43 10.686 1.121 11.891L0 16L4.204 14.898C5.36649 15.5323 6.66975 15.8641 7.994 15.863H7.998C12.366 15.863 15.924 12.305 15.928 7.93302C15.9289 6.89108 15.7237 5.85926 15.3241 4.89697C14.9246 3.93467 14.3396 3.06092 13.601 2.32602ZM7.994 14.521C6.81318 14.5201 5.65422 14.2024 4.638 13.601L4.398 13.457L1.904 14.111L2.57 11.678L2.414 11.427C1.75381 10.3773 1.40465 9.16205 1.407 7.92202C1.407 4.29602 4.364 1.33802 7.998 1.33802C8.86374 1.33647 9.72123 1.5063 10.521 1.83772C11.3208 2.16913 12.0471 2.65558 12.658 3.26902C13.2709 3.88017 13.7568 4.60657 14.0877 5.40635C14.4186 6.20613 14.5879 7.06349 14.586 7.92902C14.582 11.568 11.625 14.521 7.994 14.521ZM11.609 9.58702C11.412 9.48802 10.439 9.00902 10.256 8.94102C10.074 8.87603 9.941 8.84202 9.811 9.04002C9.678 9.23702 9.298 9.68602 9.184 9.81502C9.07 9.94802 8.952 9.96302 8.754 9.86502C8.557 9.76502 7.918 9.55702 7.162 8.88002C6.572 8.35503 6.177 7.70502 6.059 7.50802C5.945 7.31002 6.048 7.20402 6.147 7.10502C6.234 7.01702 6.344 6.87302 6.443 6.75902C6.543 6.64502 6.576 6.56102 6.641 6.42902C6.706 6.29502 6.675 6.18102 6.626 6.08202C6.576 5.98302 6.181 5.00602 6.014 4.61202C5.854 4.22302 5.691 4.27702 5.569 4.27202C5.455 4.26502 5.322 4.26502 5.189 4.26502C5.08857 4.26758 4.98976 4.29084 4.89873 4.33334C4.80771 4.37584 4.72643 4.43667 4.66 4.51202C4.478 4.71002 3.969 5.18902 3.969 6.16602C3.969 7.14302 4.679 8.08202 4.779 8.21502C4.877 8.34803 6.173 10.347 8.162 11.207C8.632 11.412 9.002 11.533 9.291 11.625C9.766 11.777 10.195 11.754 10.537 11.705C10.917 11.647 11.708 11.225 11.875 10.762C12.039 10.298 12.039 9.90203 11.989 9.81903C11.94 9.73503 11.807 9.68602 11.609 9.58702Z" fill="#262626"/>
</svg>
